<svg width="64" height="64" fill="none" xmlns="http://www.w3.org/2000/svg"><g clip-path="url(#a)"><path d="M0 32C0 14.327 14.327 0 32 0c17.673 0 32 14.327 32 32 0 17.673-14.327 32-32 32C14.327 64 0 49.673 0 32z" fill="#fff"/><path fill-rule="evenodd" clip-rule="evenodd" d="M40.348 1.104c4.095 1.103 7.864 2.999 11.134 5.512L40.348 17.751V1.104zM1.103 23.652a31.883 31.883 0 0 1 5.512-11.134L17.75 23.652H1.103zm56.282-11.134a31.887 31.887 0 0 1 5.513 11.134H46.251l11.134-11.134zM1.103 40.348c1.103 4.094 2.999 7.864 5.512 11.134L17.75 40.348H1.103zm11.416 17.038A31.886 31.886 0 0 0 23.653 62.9V46.252L12.52 57.386zm0-50.77a31.886 31.886 0 0 1 11.134-5.512V17.75L12.519 6.616zM40.348 62.9c4.094-1.104 7.864-3 11.134-5.513L40.348 46.252v16.647zm17.037-11.417L46.251 40.348h16.647a31.887 31.887 0 0 1-5.513 11.134z" fill="#144199"/><path fill-rule="evenodd" clip-rule="evenodd" d="M63.73 27.826H36.173V.271a32.32 32.32 0 0 0-8.348 0v27.555H.271a32.32 32.32 0 0 0 0 8.348h27.555v27.555a32.312 32.312 0 0 0 8.348 0V36.174h27.555a32.312 32.312 0 0 0 0-8.348zM40.348 40.348l14.28 14.28a32.05 32.05 0 0 0 1.88-2.055L44.284 40.348h-3.935zm14.28-30.975-14.28 14.28v-3.935L52.574 7.492a32.04 32.04 0 0 1 2.054 1.881zM23.65 40.348 9.37 54.628a32.08 32.08 0 0 1-1.88-2.055l12.225-12.225h3.935zM9.37 9.373l14.28 14.28v-3.935L11.425 7.492a32.05 32.05 0 0 0-2.054 1.881z" fill="#D80027"/></g><defs><clipPath id="a"><path d="M0 32C0 14.327 14.327 0 32 0c17.673 0 32 14.327 32 32 0 17.673-14.327 32-32 32C14.327 64 0 49.673 0 32z" fill="#fff"/></clipPath></defs></svg>